# exported by https://3dviewer.net
mtllib model.mtl
g Outer
v 0 0 0
v 0 0 2
v 1 0 2
v 1 0 0
v 2 0 2
v 2 0 1
v 1 0 1
v 2 2 2
v 2 2 1
v 2 2 0
v 2 1 0
v 2 1 1
v 1 2 0
v 0 2 0
v 1 1 0
vn 0 1 0
vn 0 1 0
vn 0 1 0
vn 0 1 0
vn -1 0 0
vn -1 0 0
vn -1 0 0
vn -1 0 0
vn 0 0 1
vn 0 0 1
vn 0 0 1
vn 0 0 1
usemtl Blue_1
f 1//1 2//1 3//1
f 1//2 3//2 4//2
f 3//3 5//3 6//3
f 3//4 6//4 7//4
usemtl Blue_2
f 5//5 8//5 9//5
f 5//6 9//6 6//6
f 9//7 10//7 11//7
f 9//8 11//8 12//8
usemtl Blue_3
f 1//9 4//9 13//9
f 1//10 13//10 14//10
f 10//11 13//11 15//11
f 10//12 15//12 11//12
g Inner
v 1 0 0
v 1 0 1
v 1 1 1
v 1 1 0
v 2 0 1
v 2 1 1
v 2 1 0
vn -1 0 0
vn -1 0 0
vn 0 0 1
vn 0 0 1
vn 0 1 0
vn 0 1 0
usemtl Blue_2
f 16//13 17//13 18//13
f 16//14 18//14 19//14
usemtl Blue_3
f 20//15 21//15 18//15
f 20//16 18//16 17//16
usemtl Blue_1
f 22//17 19//17 18//17
f 22//18 18//18 21//18
